# xmcd CD database file
#
# Track frame offsets:
#	150
#	13492
#	27088
#	39652
#	53752
#	67342
#	79438
#	91577
#	105658
#	117940
#	130251
#	143108
#	156140
#	167575
#	179132
#	193314
#	207532
#	220122
#	234522
#	246859
#
# Disc length: 3459 seconds
#
# Revision: 0
# Processed by: cddbd v1.5PL3 Copyright (c) Steve Scherf et al.
# Submitted via: CDex 1.50
#
DISCID=2a0d8114
DTITLE=Hank Snow - The Blue Velvet Band
DYEAR=1900
DGENRE=Country
TTITLE0=Blue For Old Hawaii
TTITLE1=My San Antonio Mama
TTITLE2=My Little Swiss Maiden
TTITLE3=The Blue Velvet Band
TTITLE4=The Hobo's Last Ride
TTITLE5=I'll Ride Back To Lonesome Valley
TTITLE6=There's A Picture On Pinto's Bridle
TTITLE7=On The Old Mississippi Shore
TTITLE8=She's A Rose From The Garden Of Prayer
TTITLE9=Wanderin' On
TTITLE10=Within This Broken Heart Of Mine
TTITLE11=I Knew That We'd Meet Again
TTITLE12=My Filipino Rose
TTITLE13=Your Sad Kiss Goodbye
TTITLE14=Little Buddy
TTITLE15=The Night I Stole Old Sammy Morgan's Gin
TTITLE16=Out On The Open Range
TTITLE17=Somewhere Along Life's Highway
TTITLE18=My Two Timin' Woman
TTITLE19=Broken Hearted
EXTD=
EXTT0=
EXTT1=
EXTT2=
EXTT3=
EXTT4=
EXTT5=
EXTT6=
EXTT7=
EXTT8=
EXTT9=
EXTT10=
EXTT11=
EXTT12=
EXTT13=
EXTT14=
EXTT15=
EXTT16=
EXTT17=
EXTT18=
EXTT19=
PLAYORDER=
